<?xml version="1.0" encoding="UTF-8" standalone="no"?>
<!-- Created with Inkscape (http://www.inkscape.org/) -->

<svg
   xmlns:a="http://ns.adobe.com/AdobeSVGViewerExtensions/3.0/"
   xmlns:i="&amp;ns_ai;"
   xmlns:dc="http://purl.org/dc/elements/1.1/"
   xmlns:cc="http://creativecommons.org/ns#"
   xmlns:rdf="http://www.w3.org/1999/02/22-rdf-syntax-ns#"
   xmlns:svg="http://www.w3.org/2000/svg"
   xmlns="http://www.w3.org/2000/svg"
   xmlns:sodipodi="http://sodipodi.sourceforge.net/DTD/sodipodi-0.dtd"
   xmlns:inkscape="http://www.inkscape.org/namespaces/inkscape"
   width="200"
   height="200"
   id="svg2"
   version="1.1"
   inkscape:version="0.48.4 r9939"
   sodipodi:docname="New document 1">
  <defs
     id="defs4" />
  <sodipodi:namedview
     id="base"
     pagecolor="#ffffff"
     bordercolor="#666666"
     borderopacity="1.0"
     inkscape:pageopacity="0.0"
     inkscape:pageshadow="2"
     inkscape:zoom="1.4"
     inkscape:cx="135.30205"
     inkscape:cy="27.643297"
     inkscape:document-units="px"
     inkscape:current-layer="Layer_5"
     showgrid="false"
     width="200px"
     inkscape:window-width="1305"
     inkscape:window-height="744"
     inkscape:window-x="61"
     inkscape:window-y="24"
     inkscape:window-maximized="1" />
  <metadata
     id="metadata7">
    <rdf:RDF>
      <cc:Work
         rdf:about="">
        <dc:format>image/svg+xml</dc:format>
        <dc:type
           rdf:resource="http://purl.org/dc/dcmitype/StillImage" />
        <dc:title></dc:title>
      </cc:Work>
    </rdf:RDF>
  </metadata>
  <g
     inkscape:label="Layer 1"
     inkscape:groupmode="layer"
     id="layer1"
     transform="translate(0,-852.36205)">
    <g
       id="g3072"
       transform="matrix(1.025641,0,0,1.025641,-1.6355311,850.15509)">
      <g
         i:rgbTrio="#4F008000FFFF"
         i:dimmedPercent="50"
         i:layer="yes"
         id="Layer_1"
         transform="translate(340.55358,45.964287)">
        <g
           id="g2990"
           i:knockout="Off">
          <linearGradient
             y2="197.752"
             x2="198.2495"
             y1="1.252"
             x1="0.74949998"
             gradientUnits="userSpaceOnUse"
             id="SVGID_1_">
            <stop
               id="stop2993"
               style="stop-color:#666666"
               offset="0" />
            <stop
               id="stop2995"
               style="stop-color:#B2B2B2"
               offset="1" />
            <a:midPointStop
               style="stop-color:#666666"
               offset="0" />
            <a:midPointStop
               style="stop-color:#666666"
               offset="0.5" />
            <a:midPointStop
               style="stop-color:#B2B2B2"
               offset="1" />
          </linearGradient>
          <circle
             id="circle2997"
             r="97.5"
             cy="100"
             cx="100"
             i:knockout="Off"
             sodipodi:cx="100"
             sodipodi:cy="100"
             sodipodi:rx="97.5"
             sodipodi:ry="97.5"
             style="fill:url(#SVGID_1_)"
             d="m 197.5,100 c 0,53.84776 -43.65224,97.5 -97.5,97.5 C 46.152237,197.5 2.5,153.84776 2.5,100 2.5,46.152237 46.152237,2.5 100,2.5 c 53.84776,0 97.5,43.652237 97.5,97.5 z" />
        </g>
        <g
           id="g2999"
           i:knockout="Off">
          <linearGradient
             y2="182.687"
             x2="177.7056"
             y1="16.687"
             x1="21.705601"
             gradientUnits="userSpaceOnUse"
             id="SVGID_2_">
            <stop
               id="stop3002"
               style="stop-color:#E5E5E5"
               offset="0" />
            <stop
               id="stop3004"
               style="stop-color:#FFFFFF"
               offset="1" />
            <a:midPointStop
               style="stop-color:#E5E5E5"
               offset="0" />
            <a:midPointStop
               style="stop-color:#E5E5E5"
               offset="0.5" />
            <a:midPointStop
               style="stop-color:#FFFFFF"
               offset="1" />
          </linearGradient>
          <circle
             id="circle3006"
             r="93.5"
             cy="100"
             cx="100"
             i:knockout="Off"
             sodipodi:cx="100"
             sodipodi:cy="100"
             sodipodi:rx="93.5"
             sodipodi:ry="93.5"
             style="fill:url(#SVGID_2_)"
             d="m 193.5,100 c 0,51.63862 -41.86138,93.5 -93.5,93.5 C 48.361376,193.5 6.5,151.63862 6.5,100 6.5,48.361376 48.361376,6.5 100,6.5 c 51.63862,0 93.5,41.861376 93.5,93.5 z" />
        </g>
        <g
           id="g3008"
           i:knockout="Off">
          <radialGradient
             gradientUnits="userSpaceOnUse"
             r="252.8037"
             cy="35.834"
             cx="59.1675"
             id="SVGID_3_">
            <stop
               id="stop3011"
               style="stop-color:#FFFFFF"
               offset="0.1057" />
            <stop
               id="stop3013"
               style="stop-color:#E5E5E5"
               offset="1" />
            <a:midPointStop
               style="stop-color:#FFFFFF"
               offset="0.1057" />
            <a:midPointStop
               style="stop-color:#FFFFFF"
               offset="0.5" />
            <a:midPointStop
               style="stop-color:#E5E5E5"
               offset="1" />
          </radialGradient>
          <circle
             id="circle3015"
             r="88.5"
             cy="100"
             cx="100"
             i:knockout="Off"
             sodipodi:cx="100"
             sodipodi:cy="100"
             sodipodi:rx="88.5"
             sodipodi:ry="88.5"
             style="fill:url(#SVGID_3_)"
             d="m 188.5,100 c 0,48.8772 -39.6228,88.5 -88.5,88.5 -48.8772,0 -88.5,-39.6228 -88.5,-88.5 0,-48.8772 39.6228,-88.5 88.5,-88.5 48.8772,0 88.5,39.6228 88.5,88.5 z" />
        </g>
      </g>
      <g
         i:rgbTrio="#FFFF4F004F00"
         i:dimmedPercent="50"
         i:layer="yes"
         id="Layer_2"
         style="fill:#ffffff;fill-opacity:1">
        <g
           id="g3018"
           i:knockout="Off"
           style="fill:#ffffff;fill-opacity:1">
          <path
             id="path3020"
             d="M 96.695,14.852 V 26.5 h -3.219 v -7.633 c -0.521,0.396 -1.025,0.716 -1.512,0.961 -0.487,0.245 -1.098,0.479 -1.832,0.703 v -2.609 c 1.083,-0.349 1.924,-0.768 2.523,-1.258 0.599,-0.489 1.067,-1.094 1.406,-1.813 h 2.634 z"
             i:knockout="Off"
             inkscape:connector-curvature="0"
             style="fill:#ffffff;fill-opacity:1" />
          <path
             id="path3022"
             d="m 109.469,26.5 h -9.547 c 0.109,-0.942 0.441,-1.829 0.996,-2.66 0.555,-0.831 1.595,-1.811 3.121,-2.941 0.932,-0.692 1.528,-1.219 1.789,-1.578 0.26,-0.359 0.391,-0.7 0.391,-1.023 0,-0.349 -0.129,-0.647 -0.387,-0.895 -0.258,-0.247 -0.582,-0.371 -0.973,-0.371 -0.406,0 -0.738,0.128 -0.996,0.383 -0.258,0.255 -0.432,0.706 -0.52,1.352 l -3.188,-0.258 c 0.125,-0.896 0.354,-1.595 0.688,-2.098 0.333,-0.502 0.803,-0.888 1.41,-1.156 0.606,-0.268 1.446,-0.402 2.52,-0.402 1.119,0 1.99,0.128 2.613,0.383 0.622,0.255 1.111,0.647 1.469,1.176 0.356,0.529 0.535,1.121 0.535,1.777 0,0.698 -0.205,1.365 -0.613,2 -0.409,0.636 -1.152,1.333 -2.23,2.094 -0.641,0.443 -1.069,0.753 -1.285,0.93 -0.217,0.177 -0.471,0.409 -0.762,0.695 h 4.969 V 26.5 z"
             i:knockout="Off"
             inkscape:connector-curvature="0"
             style="fill:#ffffff;fill-opacity:1" />
        </g>
        <g
           id="g3024"
           i:knockout="Off"
           style="fill:#ffffff;fill-opacity:1">
          <path
             id="path3026"
             d="m 177.906,95.77 -3.008,-0.539 c 0.25,-0.958 0.73,-1.692 1.441,-2.203 0.711,-0.51 1.717,-0.766 3.02,-0.766 1.494,0 2.575,0.279 3.242,0.836 0.666,0.558 1,1.258 1,2.102 0,0.495 -0.136,0.943 -0.406,1.344 -0.271,0.401 -0.68,0.753 -1.227,1.055 0.442,0.109 0.781,0.237 1.016,0.383 0.38,0.234 0.676,0.543 0.887,0.926 0.211,0.383 0.316,0.84 0.316,1.371 0,0.667 -0.175,1.307 -0.523,1.918 -0.35,0.612 -0.852,1.084 -1.508,1.414 -0.656,0.33 -1.519,0.496 -2.586,0.496 -1.042,0 -1.863,-0.123 -2.465,-0.367 -0.602,-0.244 -1.097,-0.603 -1.484,-1.074 -0.389,-0.471 -0.687,-1.063 -0.895,-1.777 l 3.18,-0.422 c 0.125,0.641 0.318,1.085 0.582,1.332 0.263,0.248 0.598,0.371 1.004,0.371 0.427,0 0.782,-0.156 1.066,-0.469 0.283,-0.313 0.426,-0.729 0.426,-1.25 0,-0.531 -0.137,-0.942 -0.41,-1.234 -0.273,-0.292 -0.645,-0.438 -1.113,-0.438 -0.25,0 -0.594,0.063 -1.031,0.188 l 0.164,-2.273 c 0.177,0.026 0.314,0.039 0.414,0.039 0.416,0 0.764,-0.133 1.043,-0.398 0.278,-0.266 0.418,-0.581 0.418,-0.945 0,-0.349 -0.104,-0.627 -0.313,-0.836 -0.209,-0.208 -0.495,-0.313 -0.859,-0.313 -0.375,0 -0.68,0.113 -0.914,0.34 -0.234,0.227 -0.394,0.621 -0.477,1.189 z"
             i:knockout="Off"
             inkscape:connector-curvature="0"
             style="fill:#ffffff;fill-opacity:1" />
        </g>
        <g
           id="g3028"
           i:knockout="Off"
           style="fill:#ffffff;fill-opacity:1">
          <path
             id="path3030"
             d="m 16.961,101.34 3.164,-0.398 c 0.083,0.443 0.224,0.756 0.422,0.938 0.198,0.183 0.44,0.273 0.727,0.273 0.51,0 0.909,-0.258 1.195,-0.773 0.208,-0.38 0.364,-1.185 0.469,-2.414 -0.38,0.391 -0.771,0.677 -1.172,0.859 -0.401,0.183 -0.865,0.273 -1.391,0.273 -1.026,0 -1.892,-0.364 -2.598,-1.094 -0.706,-0.729 -1.059,-1.651 -1.059,-2.766 0,-0.76 0.18,-1.453 0.539,-2.078 0.359,-0.625 0.854,-1.098 1.484,-1.418 0.63,-0.32 1.422,-0.48 2.375,-0.48 1.146,0 2.065,0.197 2.758,0.59 0.692,0.394 1.246,1.019 1.66,1.875 0.414,0.857 0.621,1.988 0.621,3.395 0,2.068 -0.435,3.582 -1.305,4.543 -0.87,0.961 -2.076,1.441 -3.617,1.441 -0.912,0 -1.63,-0.105 -2.156,-0.316 -0.526,-0.211 -0.964,-0.52 -1.313,-0.926 -0.347,-0.407 -0.616,-0.915 -0.803,-1.524 z m 5.859,-5.11 c 0,-0.62 -0.156,-1.105 -0.469,-1.457 -0.313,-0.352 -0.693,-0.527 -1.141,-0.527 -0.422,0 -0.772,0.159 -1.051,0.477 -0.279,0.318 -0.418,0.794 -0.418,1.43 0,0.641 0.145,1.13 0.434,1.469 0.289,0.339 0.649,0.508 1.082,0.508 0.448,0 0.82,-0.164 1.117,-0.492 0.297,-0.328 0.446,-0.798 0.446,-1.408 z"
             i:knockout="Off"
             inkscape:connector-curvature="0"
             style="fill:#ffffff;fill-opacity:1" />
        </g>
        <g
           id="g3032"
           i:knockout="Off"
           style="fill:#ffffff;fill-opacity:1">
          <path
             id="path3034"
             d="m 104.031,176.125 -3.164,0.391 c -0.084,-0.442 -0.223,-0.755 -0.418,-0.938 -0.195,-0.182 -0.437,-0.273 -0.723,-0.273 -0.516,0 -0.917,0.261 -1.203,0.781 -0.208,0.375 -0.362,1.178 -0.461,2.406 0.38,-0.385 0.771,-0.67 1.172,-0.855 0.401,-0.185 0.864,-0.277 1.391,-0.277 1.021,0 1.884,0.365 2.59,1.094 0.705,0.729 1.059,1.654 1.059,2.773 0,0.756 -0.179,1.445 -0.535,2.07 -0.357,0.625 -0.852,1.098 -1.484,1.418 -0.632,0.32 -1.426,0.48 -2.379,0.48 -1.146,0 -2.065,-0.195 -2.758,-0.586 -0.693,-0.391 -1.246,-1.014 -1.66,-1.871 -0.414,-0.856 -0.621,-1.99 -0.621,-3.402 0,-2.067 0.435,-3.582 1.305,-4.543 0.87,-0.961 2.075,-1.441 3.617,-1.441 0.911,0 1.631,0.105 2.16,0.316 0.528,0.211 0.967,0.52 1.316,0.926 0.348,0.406 0.614,0.917 0.796,1.531 z m -5.859,5.102 c 0,0.62 0.156,1.105 0.469,1.457 0.313,0.352 0.695,0.527 1.148,0.527 0.417,0 0.766,-0.158 1.047,-0.477 0.281,-0.317 0.422,-0.791 0.422,-1.422 0,-0.646 -0.146,-1.138 -0.438,-1.477 -0.292,-0.338 -0.654,-0.508 -1.086,-0.508 -0.443,0 -0.814,0.164 -1.113,0.492 -0.3,0.329 -0.449,0.798 -0.449,1.408 z"
             i:knockout="Off"
             inkscape:connector-curvature="0"
             style="fill:#ffffff;fill-opacity:1" />
        </g>
      </g>
      <g
         i:rgbTrio="#4F004F00FFFF"
         i:dimmedPercent="50"
         i:layer="yes"
         id="Layer_4"
         style="fill:#ffffff;fill-opacity:1">
        <g
           id="g3037"
           style="fill:#ffffff;fill-opacity:1">
          <path
             id="path3039"
             d="m 143.73,26.383 -2.963,-1.711 -3.1,5.369 c 1,0.551 1.991,1.115 2.965,1.708 l 3.098,-5.366 z"
             i:knockout="Off"
             inkscape:connector-curvature="0"
             style="fill:#ffffff;fill-opacity:1" />
          <path
             id="path3041"
             d="m 55.268,172.761 2.962,1.711 3.163,-5.478 c -1,-0.55 -1.992,-1.114 -2.966,-1.705 l -3.159,5.472 z"
             i:knockout="Off"
             inkscape:connector-curvature="0"
             style="fill:#ffffff;fill-opacity:1" />
          <path
             id="path3043"
             d="m 140.768,174.472 2.963,-1.711 -3.159,-5.472 c -0.974,0.592 -1.965,1.156 -2.966,1.706 l 3.162,5.477 z"
             i:knockout="Off"
             inkscape:connector-curvature="0"
             style="fill:#ffffff;fill-opacity:1" />
          <path
             id="path3045"
             d="m 58.23,24.671 -2.962,1.711 3.098,5.366 c 0.973,-0.592 1.965,-1.157 2.965,-1.708 L 58.23,24.671 z"
             i:knockout="Off"
             inkscape:connector-curvature="0"
             style="fill:#ffffff;fill-opacity:1" />
          <path
             id="path3047"
             d="m 172.688,143.804 1.712,-2.962 -5.455,-3.149 c -0.551,1 -1.116,1.991 -1.708,2.964 l 5.451,3.147 z"
             i:knockout="Off"
             inkscape:connector-curvature="0"
             style="fill:#ffffff;fill-opacity:1" />
          <path
             id="path3049"
             d="m 26.311,55.341 -1.711,2.962 5.393,3.114 c 0.549,-1.001 1.114,-1.992 1.705,-2.966 l -5.387,-3.11 z"
             i:knockout="Off"
             inkscape:connector-curvature="0"
             style="fill:#ffffff;fill-opacity:1" />
          <path
             id="path3051"
             d="m 24.172,141.268 1.709,2.962 5.965,-3.443 c -0.594,-0.972 -1.161,-1.961 -1.714,-2.96 l -5.96,3.441 z"
             i:knockout="Off"
             inkscape:connector-curvature="0"
             style="fill:#ffffff;fill-opacity:1" />
          <path
             id="path3053"
             d="m 173.972,58.731 -1.711,-2.962 -4.88,2.818 c 0.589,0.975 1.157,1.963 1.705,2.965 l 4.886,-2.821 z"
             i:knockout="Off"
             inkscape:connector-curvature="0"
             style="fill:#ffffff;fill-opacity:1" />
        </g>
      </g>
      <g
         i:rgbTrio="#4F00FFFF4F00"
         i:dimmedPercent="50"
         i:layer="yes"
         id="Layer_3" />
      <g
         i:rgbTrio="#FFFFFFFF4F00"
         i:dimmedPercent="50"
         i:layer="yes"
         id="Layer_5">
        <radialGradient
           gradientUnits="userSpaceOnUse"
           r="7"
           cy="99.5"
           cx="99.5"
           id="SVGID_4_">
          <stop
             id="stop3058"
             style="stop-color:#4D4D4D"
             offset="0.0088" />
          <stop
             id="stop3060"
             style="stop-color:#000000"
             offset="1" />
          <a:midPointStop
             style="stop-color:#4D4D4D"
             offset="0.0088" />
          <a:midPointStop
             style="stop-color:#4D4D4D"
             offset="0.5" />
          <a:midPointStop
             style="stop-color:#000000"
             offset="1" />
        </radialGradient>
        <circle
           id="circle3062"
           r="7"
           cy="99.5"
           cx="99.5"
           i:knockout="Off"
           sodipodi:cx="99.5"
           sodipodi:cy="99.5"
           sodipodi:rx="7"
           sodipodi:ry="7"
           style="fill:url(#SVGID_4_)"
           d="m 106.5,99.5 c 0,3.86599 -3.13401,7 -7,7 -3.865993,0 -7,-3.13401 -7,-7 0,-3.865993 3.134007,-7 7,-7 3.86599,0 7,3.134007 7,7 z"
           transform="translate(174.80358,107.25)" />
        <circle
           id="circle3064"
           r="3"
           cy="99.5"
           cx="99.5"
           i:knockout="Off"
           sodipodi:cx="99.5"
           sodipodi:cy="99.5"
           sodipodi:rx="3"
           sodipodi:ry="3"
           d="m 102.5,99.5 c 0,1.65685 -1.34315,3 -3,3 -1.656854,0 -3,-1.34315 -3,-3 0,-1.656854 1.343146,-3 3,-3 1.65685,0 3,1.343146 3,3 z"
           transform="translate(194.30358,71.035716)" />
      </g>
    </g>
  </g>
</svg>
